ply
format ascii 1.0
element vertex 360
property float x
property float y
property float z
end_header
-2.0608561038970947 -0.0032820163760334253 0.0
-2.0609548091888428 -0.039339303970336914 0.0
-2.06105375289917 -0.07542414963245392 0.0
-2.061152935028076 -0.1115586906671524 0.0
-2.0612521171569824 -0.14776520431041718 0.0
-2.0613515377044678 -0.18406616151332855 0.0
-2.0614511966705322 -0.22048422694206238 0.0
-2.061551332473755 -0.25704237818717957 0.0
-2.061652183532715 -0.2937639653682709 0.0
-2.061753273010254 -0.3306727111339569 0.0
-2.0618550777435303 -0.3677927851676941 0.0
-2.061957597732544 -0.405148983001709 0.0
-2.0620603561401367 -0.44276660680770874 0.0
-2.062164306640625 -0.480671763420105 0.0
-2.0622689723968506 -0.5188911557197571 0.0
-2.0623748302459717 -0.5574524998664856 0.0
-2.06248140335083 -0.5963842272758484 0.0
-2.062589168548584 -0.6357159614562988 0.0
-2.0626981258392334 -0.6754783391952515 0.0
-2.0628082752227783 -0.7157031893730164 0.0
-2.062920093536377 -0.756423830986023 0.0
-2.063032865524292 -0.7976746559143066 0.0
-2.06314754486084 -0.8394920229911804 0.0
-2.0632638931274414 -0.8819137811660767 0.0
-2.0633819103240967 -0.9249796271324158 0.0
-2.0635018348693848 -0.9687314033508301 0.0
-2.0636236667633057 -1.013213038444519 0.0
-2.0637476444244385 -1.0584707260131836 0.0
-2.063873767852783 -1.1045535802841187 0.0
-2.064002513885498 -1.1515134572982788 0.0
-2.064133882522583 -1.1994049549102783 0.0
-2.064267873764038 -1.248286485671997 0.0
-2.0644044876098633 -1.298219919204712 0.0
-2.064544439315796 -1.3492711782455444 0.0
-2.064687490463257 -1.4015103578567505 0.0
-2.0648343563079834 -1.4550127983093262 0.0
-2.0649847984313965 -1.5098587274551392 0.0
-2.065138816833496 -1.5661343336105347 0.0
-2.0652973651885986 -1.6239320039749146 0.0
-2.065460205078125 -1.6833511590957642 0.0
-2.0656275749206543 -1.7444990873336792 0.0
-2.065800189971924 -1.807491421699524 0.0
-2.0659782886505127 -1.872453212738037 0.0
-2.066162109375 -1.939520001411438 0.0
-2.0385372638702393 -1.9817984104156494 0.0
-1.9686332941055298 -1.9819904565811157 0.0
-1.90110445022583 -1.9821758270263672 0.0
-1.8357921838760376 -1.9823552370071411 0.0
-1.7725512981414795 -1.9825289249420166 0.0
-1.7112478017807007 -1.9826973676681519 0.0
-1.6517581939697266 -1.9828606843948364 0.0
-1.5939680337905884 -1.9830193519592285 0.0
-1.5377719402313232 -1.9831737279891968 0.0
-1.4830718040466309 -1.9833240509033203 0.0
-1.4297763109207153 -1.9834704399108887 0.0
-1.377800703048706 -1.9836132526397705 0.0
-1.3270658254623413 -1.9837523698806763 0.0
-1.2774981260299683 -1.9838887453079224 0.0
-1.2290279865264893 -1.984021782875061 0.0
-1.1815910339355469 -1.9841521978378296 0.0
-1.1351261138916016 -1.9842796325683594 0.0
-1.0895763635635376 -1.9844049215316772 0.0
-1.0448877811431885 -1.984527587890625 0.0
-1.0010095834732056 -1.9846481084823608 0.0
-0.9578936696052551 -1.9847664833068848 0.0
-0.9154947996139526 -1.9848829507827759 0.0
-0.8737698197364807 -1.9849975109100342 0.0
-0.8326779007911682 -1.9851102828979492 0.0
-0.7921801805496216 -1.9852217435836792 0.0
-0.752239465713501 -1.985331416130066 0.0
-0.7128204703330994 -1.985439658164978 0.0
-0.6738892793655396 -1.9855464696884155 0.0
-0.635413646697998 -1.985652208328247 0.0
-0.5973623991012573 -1.9857566356658936 0.0
-0.5597056150436401 -1.9858602285385132 0.0
-0.5224144458770752 -1.9859625101089478 0.0
-0.48546120524406433 -1.986064076423645 0.0
-0.4488188922405243 -1.9861645698547363 0.0
-0.4124615490436554 -1.9862645864486694 0.0
-0.37636375427246094 -1.9863637685775757 0.0
-0.34050092101097107 -1.9864623546600342 0.0
-0.3048489987850189 -1.9865602254867554 0.0
-0.2693845331668854 -1.9866576194763184 0.0
-0.23408444225788116 -1.9867544174194336 0.0
-0.19892618060112 -1.9868509769439697 0.0
-0.16388747096061707 -1.9869472980499268 0.0
-0.12894633412361145 -1.9870432615280151 0.0
-0.09408111125230789 -1.987139105796814 0.0
-0.0592702254652977 -1.9872345924377441 0.0
-0.024492314085364342 -1.9873301982879639 0.0
0.0102739492431283 -1.987425684928894 0.0
0.045049842447042465 -1.9875211715698242 0.0
0.07985667884349823 -1.987616777420044 0.0
0.1147158294916153 -1.9877126216888428 0.0
0.14964881539344788 -1.9878084659576416 0.0
0.1846773326396942 -1.9879047870635986 0.0
0.21982328593730927 -1.9880012273788452 0.0
0.25510892271995544 -1.98809814453125 0.0
0.29055681824684143 -1.988195538520813 0.0
0.32618993520736694 -1.9882934093475342 0.0
0.3620317280292511 -1.9883918762207031 0.0
0.3981061279773712 -1.9884908199310303 0.0
0.4344378113746643 -1.9885907173156738 0.0
0.4710519313812256 -1.9886912107467651 0.0
0.5079745650291443 -1.9887927770614624 0.0
0.5452324151992798 -1.988895058631897 0.0
0.5828532576560974 -1.9889984130859375 0.0
0.6208658218383789 -1.9891027212142944 0.0
0.6592998504638672 -1.9892082214355469 0.0
0.6981863975524902 -1.9893152713775635 0.0
0.7375576496124268 -1.9894232749938965 0.0
0.7774472832679749 -1.989532709121704 0.0
0.8178905844688416 -1.989643931388855 0.0
0.8589244484901428 -1.9897565841674805 0.0
0.9005875587463379 -1.9898710250854492 0.0
0.9429206848144531 -1.9899873733520508 0.0
0.9859665036201477 -1.9901056289672852 0.0
1.0297702550888062 -1.9902257919311523 0.0
1.0743799209594727 -1.9903484582901 0.0
1.1198456287384033 -1.9904732704162598 0.0
1.166221261024475 -1.9906007051467896 0.0
1.213563323020935 -1.9907306432724 0.0
1.261932611465454 -1.990863561630249 0.0
1.3113933801651 -1.990999460220337 0.0
1.3620142936706543 -1.9911384582519531 0.0
1.4138686656951904 -1.9912809133529663 0.0
1.4670352935791016 -1.9914268255233765 0.0
1.5215983390808105 -1.9915767908096313 0.0
1.5776482820510864 -1.9917306900024414 0.0
1.6352826356887817 -1.9918891191482544 0.0
1.6946061849594116 -1.9920519590377808 0.0
1.7557322978973389 -1.9922198057174683 0.0
1.8187835216522217 -1.9923930168151855 0.0
1.8838931322097778 -1.9925719499588013 0.0
1.9512050151824951 -1.9927568435668945 0.0
2.020876169204712 -1.9929481744766235 0.0
2.093078374862671 -1.993146538734436 0.0
2.1679980754852295 -1.9933522939682007 0.0
2.2458407878875732 -1.9935660362243652 0.0
2.326831102371216 -1.993788480758667 0.0
2.4112167358398438 -1.9940202236175537 0.0
2.4992711544036865 -1.9942622184753418 0.0
2.5912957191467285 -1.9945149421691895 0.0
2.6876258850097656 -1.9947794675827026 0.0
2.788634777069092 -1.9950568675994873 0.0
2.894737720489502 -1.9953484535217285 0.0
3.0064001083374023 -1.9956550598144531 0.0
3.1241447925567627 -1.9959784746170044 0.0
3.248561143875122 -1.996320128440857 0.0
3.3803153038024902 -1.996682047843933 0.0
3.520164728164673 -1.9970661401748657 0.0
3.668972969055176 -1.997475028038025 0.0
3.8277297019958496 -1.9979110956192017 0.0
3.9975740909576416 -1.9983775615692139 0.0
4.179826259613037 -1.9988781213760376 0.0
4.376020908355713 -1.9994169473648071 0.0
4.587957859039307 -1.9999991655349731 0.0
4.817756175994873 -2.0006303787231445 0.0
5.067934036254883 -2.0013175010681152 0.0
5.3415021896362305 -2.0020687580108643 0.0
5.642095565795898 -2.002894401550293 0.0
5.974141597747803 -2.0038065910339355 0.0
6.343085765838623 -2.004819869995117 0.0
6.75570821762085 -2.005953311920166 0.0
7.203241348266602 -2.0024166107177734 0.0
7.203610897064209 -1.8674116134643555 0.0
7.203977584838867 -1.733612060546875 0.0
7.204340934753418 -1.6009209156036377 0.0
7.204701900482178 -1.4692442417144775 0.0
7.2050604820251465 -1.3384908437728882 0.0
7.205416202545166 -1.2085715532302856 0.0
7.205770492553711 -1.079399824142456 0.0
7.206122398376465 -0.9508907794952393 0.0
7.206473350524902 -0.8229613304138184 0.0
7.206822395324707 -0.6955295205116272 0.0
7.207170486450195 -0.5685150623321533 0.0
7.207517623901367 -0.44183850288391113 0.0
7.207863807678223 -0.3154211640357971 0.0
7.20820951461792 -0.18918511271476746 0.0
7.208555698394775 -0.06305285543203354 0.0
7.208901405334473 0.06305290013551712 0.0
7.20924711227417 0.18920935690402985 0.0
7.209592819213867 0.3154938220977783 0.0
7.209939479827881 0.4419839680194855 0.0
7.210287094116211 0.568757951259613 0.0
7.210635185241699 0.6958945393562317 0.0
7.210984706878662 0.8234734535217285 0.0
7.211336135864258 0.951575756072998 0.0
7.21168851852417 1.080283284187317 0.0
7.212043285369873 1.2096800804138184 0.0
7.212399959564209 1.3398511409759521 0.0
7.212759494781494 1.4708842039108276 0.0
7.213120937347412 1.6028687953948975 0.0
7.2134857177734375 1.7358969449996948 0.0
7.213852882385254 1.8700635433197021 0.0
7.214223861694336 2.0054664611816406 0.0
7.214598655700684 2.142207145690918 0.0
7.214977741241455 2.2803902626037598 0.0
7.215360641479492 2.4201247692108154 0.0
7.215747833251953 2.561523914337158 0.0
7.216140270233154 2.7047057151794434 0.0
7.2165374755859375 2.8497936725616455 0.0
7.216940879821777 2.9969165325164795 0.0
7.217350006103516 3.146209716796875 0.0
7.217765808105469 3.2978148460388184 0.0
7.2181878089904785 3.451880931854248 0.0
7.218616962432861 3.608565330505371 0.0
7.219054222106934 3.768033742904663 0.0
7.010196208953857 3.816511392593384 0.0
6.728610992431641 3.817284107208252 0.0
6.463769912719727 3.8180108070373535 0.0
6.2140727043151855 3.8186960220336914 0.0
5.978116989135742 3.819343328475952 0.0
5.754665851593018 3.8199567794799805 0.0
5.542623996734619 3.820538282394409 0.0
5.341019630432129 3.821091651916504 0.0
5.148985385894775 3.8216187953948975 0.0
4.965746879577637 3.8221216201782227 0.0
4.79060697555542 3.822601795196533 0.0
4.622941970825195 3.8230621814727783 0.0
4.462184906005859 3.823503017425537 0.0
4.307826995849609 3.8239266872406006 0.0
4.159403324127197 3.824333906173706 0.0
4.01649284362793 3.8247263431549072 0.0
3.8787105083465576 3.8251044750213623 0.0
3.7457058429718018 3.8254690170288086 0.0
3.617157220840454 3.825822114944458 0.0
3.492769241333008 3.8261635303497314 0.0
3.3722705841064453 3.826493978500366 0.0
3.2554116249084473 3.826814651489258 0.0
3.141960859298706 3.8271257877349854 0.0
3.031705617904663 3.8274283409118652 0.0
2.924447536468506 3.8277227878570557 0.0
2.820003032684326 3.8280093669891357 0.0
2.7182013988494873 3.8282887935638428 0.0
2.6188833713531494 3.828561305999756 0.0
2.5219008922576904 3.828827381134033 0.0
2.427114963531494 3.829087257385254 0.0
2.3343958854675293 3.8293418884277344 0.0
2.243621349334717 3.8295910358428955 0.0
2.154677391052246 3.8298349380493164 0.0
2.0674564838409424 3.8300743103027344 0.0
1.9818568229675293 3.8303093910217285 0.0
1.8977826833724976 3.8305399417877197 0.0
1.8151437044143677 3.8307666778564453 0.0
1.7338539361953735 3.8309900760650635 0.0
1.6538320779800415 3.831209421157837 0.0
1.5750008821487427 3.831425905227661 0.0
1.4972866773605347 3.831638813018799 0.0
1.4206193685531616 3.8318493366241455 0.0
1.3449320793151855 3.832057237625122 0.0
1.2701603174209595 3.8322622776031494 0.0
1.1962428092956543 3.8324649333953857 0.0
1.123120665550232 3.8326659202575684 0.0
1.0507367849349976 3.832864284515381 0.0
0.9790365695953369 3.8330612182617188 0.0
0.9079670310020447 3.833256244659424 0.0
0.837476909160614 3.833449602127075 0.0
0.7675164937973022 3.833641529083252 0.0
0.6980375051498413 3.833832263946533 0.0
0.6289929747581482 3.834021806716919 0.0
0.5603368282318115 3.834210157394409 0.0
0.49202415347099304 3.834397554397583 0.0
0.42401084303855896 3.8345839977264404 0.0
0.35625365376472473 3.8347702026367188 0.0
0.28870975971221924 3.8349554538726807 0.0
0.22133706510066986 3.8351402282714844 0.0
0.15409381687641144 3.835325002670288 0.0
0.08693856745958328 3.8355093002319336 0.0
0.019830111414194107 3.835693359375 0.0
-0.04727264866232872 3.8358774185180664 0.0
-0.11441079527139664 3.836061477661133 0.0
-0.18162550032138824 3.8362462520599365 0.0
-0.24895812571048737 3.8364310264587402 0.0
-0.3164503276348114 3.836616039276123 0.0
-0.384144127368927 3.8368020057678223 0.0
-0.4520820677280426 3.8369884490966797 0.0
-0.5203073620796204 3.8371756076812744 0.0
-0.588863730430603 3.8373637199401855 0.0
-0.6577960252761841 3.837552785873413 0.0
-0.7271498441696167 3.8377432823181152 0.0
-0.7969719171524048 3.837934732437134 0.0
-0.8673102259635925 3.838127613067627 0.0
-0.9382140040397644 3.838322162628174 0.0
-1.0097341537475586 3.8385186195373535 0.0
-1.081923007965088 3.838716745376587 0.0
-1.1548348665237427 3.838916778564453 0.0
-1.2285258769989014 3.839118719100952 0.0
-1.303054690361023 3.8393235206604004 0.0
-1.3784817457199097 3.8395302295684814 0.0
-1.4548707008361816 3.83974027633667 0.0
-1.53228759765625 3.8399524688720703 0.0
-1.6108018159866333 3.840167999267578 0.0
-1.690485954284668 3.8403866291046143 0.0
-1.7714159488677979 3.840608596801758 0.0
-1.8536726236343384 3.840834617614746 0.0
-1.9373396635055542 3.841063976287842 0.0
-2.0225069522857666 3.8412978649139404 0.0
-2.1092684268951416 3.841536045074463 0.0
-2.197723865509033 3.841778516769409 0.0
-2.2879796028137207 3.842026472091675 0.0
-2.3801474571228027 3.8422791957855225 0.0
-2.4743473529815674 3.8425376415252686 0.0
-2.5707075595855713 3.8428022861480713 0.0
-2.669363021850586 3.8430728912353516 0.0
-2.770460367202759 3.8433501720428467 0.0
-2.8741555213928223 3.843634843826294 0.0
-2.9806153774261475 3.8439271450042725 0.0
-3.0900204181671143 3.8442273139953613 0.0
-3.202564001083374 3.844536066055298 0.0
-3.318455457687378 3.8448541164398193 0.0
-3.437920570373535 3.845182180404663 0.0
-3.5612034797668457 3.845520257949829 0.0
-3.6885695457458496 3.845869541168213 0.0
-3.820307493209839 3.84623122215271 0.0
-3.956730842590332 3.8466055393218994 0.0
-4.098182201385498 3.846993923187256 0.0
-4.245036602020264 3.8473968505859375 0.0
-4.397704124450684 3.847815752029419 0.0
-4.556636810302734 3.8482518196105957 0.0
-4.722332000732422 3.8487067222595215 0.0
-4.895338535308838 3.8491814136505127 0.0
-5.07626485824585 3.849677801132202 0.0
-5.2657856941223145 3.8501980304718018 0.0
-5.464653015136719 3.850743532180786 0.0
-5.673707962036133 3.8513174057006836 0.0
-2.0571582317352295 1.3444451093673706 0.0
-2.0572972297668457 1.29375159740448 0.0
-2.0574331283569336 1.244154691696167 0.0
-2.0575661659240723 1.1955899000167847 0.0
-2.057696580886841 1.147996425628662 0.0
-2.0578246116638184 1.101317286491394 0.0
-2.057950019836426 1.0554983615875244 0.0
-2.0580735206604004 1.0104889869689941 0.0
-2.058194875717163 0.9662410020828247 0.0
-2.058314085006714 0.9227088689804077 0.0
-2.058431386947632 0.8798491954803467 0.0
-2.058547258377075 0.8376211524009705 0.0
-2.058661460876465 0.7959853410720825 0.0
-2.0587737560272217 0.7549045085906982 0.0
-2.058885097503662 0.7143430113792419 0.0
-2.058995008468628 0.6742665767669678 0.0
-2.059103488922119 0.6346426010131836 0.0
-2.059211015701294 0.5954394936561584 0.0
-2.0593173503875732 0.5566269755363464 0.0
-2.059422492980957 0.5181758403778076 0.0
-2.0595271587371826 0.480057954788208 0.0
-2.059630870819092 0.44224581122398376 0.0
-2.0597336292266846 0.4047129154205322 0.0
-2.05983567237854 0.36743345856666565 0.0
-2.0599372386932373 0.3303823173046112 0.0
-2.0600383281707764 0.29353487491607666 0.0
-2.060138702392578 0.25686711072921753 0.0
-2.060238838195801 0.22035542130470276 0.0
-2.0603384971618652 0.18397657573223114 0.0
-2.0604379177093506 0.1477077156305313 0.0
-2.060537099838257 0.11152622103691101 0.0
-2.060636281967163 0.07540971785783768 0.0
-2.060734748840332 0.039335958659648895 0.0
-2.060833692550659 0.0032828329131007195 0.0
